<?xml version="1.0" encoding="UTF-8" standalone="no"?>
<!DOCTYPE svg PUBLIC "-//W3C//DTD SVG 1.1//EN" "http://www.w3.org/Graphics/SVG/1.1/DTD/svg11.dtd">
<svg version="1.1" xmlns="http://www.w3.org/2000/svg" xmlns:xlink="http://www.w3.org/1999/xlink" preserveAspectRatio="xMidYMid meet" viewBox="142.52941176470588 118.01960784313724 238.31372549019616 212.82352941176475" width="234.31" height="208.82"><defs><path d="M143.53 119.02L377.84 119.02L377.84 327.84L143.53 327.84L143.53 119.02Z" id="g40Kq8so8"></path><path d="M143.53 146.47L377.84 146.47L377.84 157.25L143.53 157.25L143.53 146.47Z" id="kOjxm5pog"></path><path d="M143.53 182.75L377.84 182.75L377.84 193.53L143.53 193.53L143.53 182.75Z" id="d4qfhfYAc"></path><path d="M143.53 218.04L377.84 218.04L377.84 228.82L143.53 228.82L143.53 218.04Z" id="aym3U242M"></path><path d="M143.53 254.31L377.84 254.31L377.84 265.1L143.53 265.1L143.53 254.31Z" id="g4XF6rWQmN"></path><path d="M143.53 289.61L377.84 289.61L377.84 300.39L143.53 300.39L143.53 289.61Z" id="b5LxyFQKty"></path></defs><g><g><use xlink:href="#g40Kq8so8" opacity="1" fill="#c99999" fill-opacity="1"></use></g><g><use xlink:href="#kOjxm5pog" opacity="1" fill="#4456d1" fill-opacity="1"></use></g><g><use xlink:href="#d4qfhfYAc" opacity="1" fill="#b600fe" fill-opacity="1"></use></g><g><use xlink:href="#aym3U242M" opacity="1" fill="#fe0f77" fill-opacity="1"></use></g><g><use xlink:href="#g4XF6rWQmN" opacity="1" fill="#f6ad04" fill-opacity="1"></use></g><g><use xlink:href="#b5LxyFQKty" opacity="1" fill="#3ad8e9" fill-opacity="1"></use></g></g></svg>